# xmcd
#
# Track frame offsets:
#	150
#	15270
#	33216
#	51436
#	66256
#	80884
#	90321
#	109794
#	122649
#	146497
#	159280
#	176905
#	196500
#	212647
#	233669
#	256786
#
# Disc length: 3683 seconds
#
# Revision: 1
# Processed by: cddbd v1.4PL0 Copyright (c) Steve Scherf et al.
# Submitted via: audiograbber 1.81.03
#
DISCID=c90e6110
DTITLE=The West Coast Playboys - Swingin' Rockin' Jumpin' and Jivin'
DYEAR=1998
DGENRE=
TTITLE0=Meet Me Baby
TTITLE1=Jr.'s Bounce
TTITLE2=One Hand Stud
TTITLE3=Goodbye Solong
TTITLE4=Take Your Hands Out Of My Pockets
TTITLE5=Straighten Up Baby
TTITLE6=Good Lover
TTITLE7=Rock This Morning
TTITLE8=Meet Me With Your Black Dress On
TTITLE9=Voodoo Voodoo
TTITLE10=Mad About It
TTITLE11=I'm Gonna Leave You
TTITLE12=Out Of My Mind
TTITLE13=A Love Like Yours
TTITLE14=Take A Chance
TTITLE15=Walking Out On You
EXTD=also featuring\nCoco Montoya, Rusty Zinn, Dale Ockerman and many more
EXTT0=
EXTT1=
EXTT2=
EXTT3=
EXTT4=
EXTT5=
EXTT6=
EXTT7=
EXTT8=
EXTT9=
EXTT10=
EXTT11=
EXTT12=
EXTT13=
EXTT14=
EXTT15=
PLAYORDER=
